<mxfile host="65bd71144e">
    <diagram id="LnPlvvmLOu-sYZscobvd" name="Page-1">
        <mxGraphModel dx="670" dy="385" grid="1" gridSize="10" guides="1" tooltips="1" connect="1" arrows="1" fold="1" page="1" pageScale="1" pageWidth="850" pageHeight="1100" math="0" shadow="0">
            <root>
                <mxCell id="0"/>
                <mxCell id="1" parent="0"/>
                <mxCell id="2" value="ART_OBJECT" style="rounded=1;arcSize=10;whiteSpace=wrap;html=1;align=center;" vertex="1" parent="1">
                    <mxGeometry x="150" y="120" width="100" height="40" as="geometry"/>
                </mxCell>
                <mxCell id="3" value="id_no" style="ellipse;whiteSpace=wrap;html=1;align=center;fontStyle=4;" vertex="1" parent="1">
                    <mxGeometry x="290" y="80" width="80" height="30" as="geometry"/>
                </mxCell>
                <mxCell id="4" value="Artist" style="ellipse;whiteSpace=wrap;html=1;align=center;" vertex="1" parent="1">
                    <mxGeometry x="290" y="160" width="70" height="30" as="geometry"/>
                </mxCell>
                <mxCell id="5" value="Title" style="ellipse;whiteSpace=wrap;html=1;align=center;" vertex="1" parent="1">
                    <mxGeometry x="80" y="180" width="50" height="30" as="geometry"/>
                </mxCell>
                <mxCell id="6" value="Year" style="ellipse;whiteSpace=wrap;html=1;align=center;" vertex="1" parent="1">
                    <mxGeometry x="125" y="220" width="60" height="30" as="geometry"/>
                </mxCell>
                <mxCell id="7" value="Description" style="ellipse;whiteSpace=wrap;html=1;align=center;" vertex="1" parent="1">
                    <mxGeometry x="225" y="210" width="75" height="30" as="geometry"/>
                </mxCell>
                <mxCell id="8" value="" style="endArrow=none;html=1;rounded=0;exitX=1;exitY=0.75;exitDx=0;exitDy=0;entryX=0;entryY=0;entryDx=0;entryDy=0;" edge="1" parent="1" source="2" target="4">
                    <mxGeometry relative="1" as="geometry">
                        <mxPoint x="180" y="100" as="sourcePoint"/>
                        <mxPoint x="340" y="100" as="targetPoint"/>
                    </mxGeometry>
                </mxCell>
                <mxCell id="9" value="" style="endArrow=none;html=1;rounded=0;entryX=0.75;entryY=0;entryDx=0;entryDy=0;exitX=0;exitY=1;exitDx=0;exitDy=0;" edge="1" parent="1" source="3" target="2">
                    <mxGeometry relative="1" as="geometry">
                        <mxPoint x="110" y="70" as="sourcePoint"/>
                        <mxPoint x="270" y="70" as="targetPoint"/>
                    </mxGeometry>
                </mxCell>
                <mxCell id="10" value="" style="endArrow=none;html=1;rounded=0;entryX=0;entryY=0.5;entryDx=0;entryDy=0;exitX=1;exitY=0;exitDx=0;exitDy=0;" edge="1" parent="1" source="5" target="2">
                    <mxGeometry relative="1" as="geometry">
                        <mxPoint x="110" y="140" as="sourcePoint"/>
                        <mxPoint x="270" y="140" as="targetPoint"/>
                    </mxGeometry>
                </mxCell>
                <mxCell id="12" value="" style="endArrow=none;html=1;rounded=0;exitX=0.5;exitY=0;exitDx=0;exitDy=0;entryX=0.25;entryY=1;entryDx=0;entryDy=0;" edge="1" parent="1" source="6" target="2">
                    <mxGeometry relative="1" as="geometry">
                        <mxPoint x="90" y="200" as="sourcePoint"/>
                        <mxPoint x="250" y="200" as="targetPoint"/>
                    </mxGeometry>
                </mxCell>
                <mxCell id="13" value="" style="endArrow=none;html=1;rounded=0;exitX=0;exitY=0;exitDx=0;exitDy=0;entryX=0.75;entryY=1;entryDx=0;entryDy=0;" edge="1" parent="1" source="7" target="2">
                    <mxGeometry relative="1" as="geometry">
                        <mxPoint x="200" y="200" as="sourcePoint"/>
                        <mxPoint x="360" y="200" as="targetPoint"/>
                    </mxGeometry>
                </mxCell>
                <mxCell id="15" value="" style="shape=link;html=1;rounded=0;exitX=0.5;exitY=1;exitDx=0;exitDy=0;entryX=0.5;entryY=0;entryDx=0;entryDy=0;" edge="1" parent="1" source="2" target="20">
                    <mxGeometry relative="1" as="geometry">
                        <mxPoint x="170" y="240" as="sourcePoint"/>
                        <mxPoint x="200" y="280" as="targetPoint"/>
                    </mxGeometry>
                </mxCell>
                <mxCell id="17" value="" style="shape=link;html=1;rounded=0;exitX=1;exitY=0.5;exitDx=0;exitDy=0;entryX=0;entryY=0.5;entryDx=0;entryDy=0;" edge="1" parent="1" source="2" target="23">
                    <mxGeometry relative="1" as="geometry">
                        <mxPoint x="210" y="170" as="sourcePoint"/>
                        <mxPoint x="460" y="140" as="targetPoint"/>
                        <Array as="points"/>
                    </mxGeometry>
                </mxCell>
                <mxCell id="21" value="" style="group" vertex="1" connectable="0" parent="1">
                    <mxGeometry x="180" y="280" width="30" height="30" as="geometry"/>
                </mxCell>
                <mxCell id="20" value="" style="ellipse;whiteSpace=wrap;html=1;aspect=fixed;" vertex="1" parent="21">
                    <mxGeometry width="30" height="30" as="geometry"/>
                </mxCell>
                <mxCell id="18" value="d" style="text;html=1;align=center;verticalAlign=middle;resizable=0;points=[];autosize=1;strokeColor=none;fillColor=none;" vertex="1" parent="21">
                    <mxGeometry x="5" y="5" width="20" height="20" as="geometry"/>
                </mxCell>
                <mxCell id="22" value="" style="group" vertex="1" connectable="0" parent="1">
                    <mxGeometry x="460" y="120" width="30" height="30" as="geometry"/>
                </mxCell>
                <mxCell id="23" value="" style="ellipse;whiteSpace=wrap;html=1;aspect=fixed;" vertex="1" parent="22">
                    <mxGeometry width="30" height="30" as="geometry"/>
                </mxCell>
                <mxCell id="24" value="d" style="text;html=1;align=center;verticalAlign=middle;resizable=0;points=[];autosize=1;strokeColor=none;fillColor=none;" vertex="1" parent="22">
                    <mxGeometry x="5" y="5" width="20" height="20" as="geometry"/>
                </mxCell>
                <mxCell id="25" value="OTHER" style="rounded=1;arcSize=10;whiteSpace=wrap;html=1;align=center;" vertex="1" parent="1">
                    <mxGeometry x="10" y="380" width="100" height="40" as="geometry"/>
                </mxCell>
                <mxCell id="26" value="Type" style="ellipse;whiteSpace=wrap;html=1;align=center;" vertex="1" parent="1">
                    <mxGeometry y="440" width="80" height="30" as="geometry"/>
                </mxCell>
                <mxCell id="27" value="Style" style="ellipse;whiteSpace=wrap;html=1;align=center;" vertex="1" parent="1">
                    <mxGeometry x="70" y="470" width="60" height="30" as="geometry"/>
                </mxCell>
                <mxCell id="28" value="" style="endArrow=none;html=1;rounded=0;exitX=0.5;exitY=0;exitDx=0;exitDy=0;entryX=0.25;entryY=1;entryDx=0;entryDy=0;" edge="1" parent="1" source="26" target="25">
                    <mxGeometry relative="1" as="geometry">
                        <mxPoint x="100" y="430" as="sourcePoint"/>
                        <mxPoint x="260" y="430" as="targetPoint"/>
                    </mxGeometry>
                </mxCell>
                <mxCell id="29" value="" style="endArrow=none;html=1;rounded=0;exitX=0.5;exitY=0;exitDx=0;exitDy=0;entryX=0.75;entryY=1;entryDx=0;entryDy=0;" edge="1" parent="1" source="27" target="25">
                    <mxGeometry relative="1" as="geometry">
                        <mxPoint x="160" y="450" as="sourcePoint"/>
                        <mxPoint x="320" y="450" as="targetPoint"/>
                    </mxGeometry>
                </mxCell>
                <mxCell id="30" value="" style="endArrow=none;html=1;rounded=0;exitX=0.5;exitY=0;exitDx=0;exitDy=0;entryX=0;entryY=1;entryDx=0;entryDy=0;" edge="1" parent="1" source="25" target="20">
                    <mxGeometry relative="1" as="geometry">
                        <mxPoint x="60" y="360" as="sourcePoint"/>
                        <mxPoint x="220" y="360" as="targetPoint"/>
                    </mxGeometry>
                </mxCell>
                <mxCell id="33" value="PAINTING" style="rounded=1;arcSize=10;whiteSpace=wrap;html=1;align=center;" vertex="1" parent="1">
                    <mxGeometry x="150.61" y="380" width="100" height="40" as="geometry"/>
                </mxCell>
                <mxCell id="34" value="" style="endArrow=none;html=1;rounded=0;exitX=0.5;exitY=0;exitDx=0;exitDy=0;" edge="1" parent="1" source="33">
                    <mxGeometry relative="1" as="geometry">
                        <mxPoint x="200.61" y="360" as="sourcePoint"/>
                        <mxPoint x="200" y="310" as="targetPoint"/>
                    </mxGeometry>
                </mxCell>
                <mxCell id="36" value="" style="endArrow=none;html=1;" edge="1" parent="1">
                    <mxGeometry width="50" height="50" relative="1" as="geometry">
                        <mxPoint x="190.61" y="330" as="sourcePoint"/>
                        <mxPoint x="210.61" y="330" as="targetPoint"/>
                        <Array as="points">
                            <mxPoint x="200.61" y="350"/>
                        </Array>
                    </mxGeometry>
                </mxCell>
                <mxCell id="38" value="" style="endArrow=none;html=1;" edge="1" parent="1">
                    <mxGeometry width="50" height="50" relative="1" as="geometry">
                        <mxPoint x="130" y="350" as="sourcePoint"/>
                        <mxPoint x="120" y="330" as="targetPoint"/>
                        <Array as="points">
                            <mxPoint x="110" y="350"/>
                        </Array>
                    </mxGeometry>
                </mxCell>
                <mxCell id="39" value="Paint_type" style="ellipse;whiteSpace=wrap;html=1;align=center;" vertex="1" parent="1">
                    <mxGeometry x="110" y="510" width="90" height="30" as="geometry"/>
                </mxCell>
                <mxCell id="41" value="Drawn_on" style="ellipse;whiteSpace=wrap;html=1;align=center;" vertex="1" parent="1">
                    <mxGeometry x="170.61" y="470" width="80" height="30" as="geometry"/>
                </mxCell>
                <mxCell id="42" value="Style" style="ellipse;whiteSpace=wrap;html=1;align=center;" vertex="1" parent="1">
                    <mxGeometry x="225" y="430" width="70" height="30" as="geometry"/>
                </mxCell>
                <mxCell id="43" value="" style="endArrow=none;html=1;rounded=0;exitX=0.75;exitY=1;exitDx=0;exitDy=0;entryX=0;entryY=0;entryDx=0;entryDy=0;" edge="1" parent="1" source="33" target="42">
                    <mxGeometry relative="1" as="geometry">
                        <mxPoint x="280" y="340" as="sourcePoint"/>
                        <mxPoint x="440" y="340" as="targetPoint"/>
                    </mxGeometry>
                </mxCell>
                <mxCell id="44" value="" style="endArrow=none;html=1;rounded=0;exitX=0.25;exitY=1;exitDx=0;exitDy=0;entryX=0.5;entryY=0;entryDx=0;entryDy=0;" edge="1" parent="1" source="33" target="39">
                    <mxGeometry relative="1" as="geometry">
                        <mxPoint x="190" y="430" as="sourcePoint"/>
                        <mxPoint x="350" y="430" as="targetPoint"/>
                    </mxGeometry>
                </mxCell>
                <mxCell id="45" value="" style="endArrow=none;html=1;rounded=0;exitX=0.5;exitY=1;exitDx=0;exitDy=0;entryX=0.5;entryY=0;entryDx=0;entryDy=0;" edge="1" parent="1" source="33" target="41">
                    <mxGeometry relative="1" as="geometry">
                        <mxPoint x="200" y="440" as="sourcePoint"/>
                        <mxPoint x="360" y="440" as="targetPoint"/>
                    </mxGeometry>
                </mxCell>
                <mxCell id="46" value="SCULPTURE" style="rounded=1;arcSize=10;whiteSpace=wrap;html=1;align=center;" vertex="1" parent="1">
                    <mxGeometry x="320" y="390" width="100" height="40" as="geometry"/>
                </mxCell>
                <mxCell id="47" value="" style="endArrow=none;html=1;rounded=0;entryX=0.5;entryY=0;entryDx=0;entryDy=0;" edge="1" parent="1" target="46">
                    <mxGeometry relative="1" as="geometry">
                        <mxPoint x="210" y="300" as="sourcePoint"/>
                        <mxPoint x="510" y="340" as="targetPoint"/>
                    </mxGeometry>
                </mxCell>
                <mxCell id="48" value="" style="endArrow=none;html=1;" edge="1" parent="1">
                    <mxGeometry width="50" height="50" relative="1" as="geometry">
                        <mxPoint x="270" y="350" as="sourcePoint"/>
                        <mxPoint x="285" y="330" as="targetPoint"/>
                        <Array as="points">
                            <mxPoint x="300" y="350"/>
                        </Array>
                    </mxGeometry>
                </mxCell>
                <mxCell id="50" value="Material" style="ellipse;whiteSpace=wrap;html=1;align=center;" vertex="1" parent="1">
                    <mxGeometry x="280" y="460" width="70" height="30" as="geometry"/>
                </mxCell>
                <mxCell id="51" value="" style="endArrow=none;html=1;rounded=0;exitX=0.5;exitY=0;exitDx=0;exitDy=0;entryX=0.25;entryY=1;entryDx=0;entryDy=0;" edge="1" parent="1" source="50" target="46">
                    <mxGeometry relative="1" as="geometry">
                        <mxPoint x="320" y="440" as="sourcePoint"/>
                        <mxPoint x="480" y="440" as="targetPoint"/>
                    </mxGeometry>
                </mxCell>
                <mxCell id="52" value="Style" style="ellipse;whiteSpace=wrap;html=1;align=center;" vertex="1" parent="1">
                    <mxGeometry x="390" y="460" width="70" height="30" as="geometry"/>
                </mxCell>
                <mxCell id="53" value="Height" style="ellipse;whiteSpace=wrap;html=1;align=center;" vertex="1" parent="1">
                    <mxGeometry x="295" y="520" width="70" height="30" as="geometry"/>
                </mxCell>
                <mxCell id="54" value="Weight" style="ellipse;whiteSpace=wrap;html=1;align=center;" vertex="1" parent="1">
                    <mxGeometry x="380" y="520" width="70" height="30" as="geometry"/>
                </mxCell>
                <mxCell id="55" value="" style="endArrow=none;html=1;rounded=0;exitX=1;exitY=0;exitDx=0;exitDy=0;entryX=0.5;entryY=1;entryDx=0;entryDy=0;" edge="1" parent="1" source="53" target="46">
                    <mxGeometry relative="1" as="geometry">
                        <mxPoint x="350" y="500" as="sourcePoint"/>
                        <mxPoint x="510" y="500" as="targetPoint"/>
                    </mxGeometry>
                </mxCell>
                <mxCell id="56" value="" style="endArrow=none;html=1;rounded=0;exitX=0.5;exitY=1;exitDx=0;exitDy=0;entryX=0;entryY=0;entryDx=0;entryDy=0;" edge="1" parent="1" source="46" target="54">
                    <mxGeometry relative="1" as="geometry">
                        <mxPoint x="390" y="500" as="sourcePoint"/>
                        <mxPoint x="550" y="500" as="targetPoint"/>
                    </mxGeometry>
                </mxCell>
                <mxCell id="57" value="" style="endArrow=none;html=1;rounded=0;exitX=0.75;exitY=1;exitDx=0;exitDy=0;entryX=0.5;entryY=0;entryDx=0;entryDy=0;" edge="1" parent="1" source="46" target="52">
                    <mxGeometry relative="1" as="geometry">
                        <mxPoint x="410" y="440" as="sourcePoint"/>
                        <mxPoint x="570" y="440" as="targetPoint"/>
                    </mxGeometry>
                </mxCell>
                <mxCell id="58" value="STATUE" style="rounded=1;arcSize=10;whiteSpace=wrap;html=1;align=center;" vertex="1" parent="1">
                    <mxGeometry x="480" y="420" width="100" height="40" as="geometry"/>
                </mxCell>
                <mxCell id="59" value="" style="endArrow=none;html=1;rounded=0;exitX=1;exitY=0.5;exitDx=0;exitDy=0;entryX=0.5;entryY=0;entryDx=0;entryDy=0;" edge="1" parent="1" source="20" target="58">
                    <mxGeometry relative="1" as="geometry">
                        <mxPoint x="320" y="290" as="sourcePoint"/>
                        <mxPoint x="480" y="290" as="targetPoint"/>
                    </mxGeometry>
                </mxCell>
                <mxCell id="60" value="" style="endArrow=none;html=1;" edge="1" parent="1">
                    <mxGeometry width="50" height="50" relative="1" as="geometry">
                        <mxPoint x="350" y="360" as="sourcePoint"/>
                        <mxPoint x="365" y="340" as="targetPoint"/>
                        <Array as="points">
                            <mxPoint x="380" y="360"/>
                        </Array>
                    </mxGeometry>
                </mxCell>
                <mxCell id="61" value="Material" style="ellipse;whiteSpace=wrap;html=1;align=center;" vertex="1" parent="1">
                    <mxGeometry x="440" y="490" width="70" height="30" as="geometry"/>
                </mxCell>
                <mxCell id="62" value="" style="endArrow=none;html=1;rounded=0;exitX=0.5;exitY=0;exitDx=0;exitDy=0;entryX=0.25;entryY=1;entryDx=0;entryDy=0;" edge="1" parent="1" source="61">
                    <mxGeometry relative="1" as="geometry">
                        <mxPoint x="480" y="470" as="sourcePoint"/>
                        <mxPoint x="505" y="460" as="targetPoint"/>
                    </mxGeometry>
                </mxCell>
                <mxCell id="63" value="Style" style="ellipse;whiteSpace=wrap;html=1;align=center;" vertex="1" parent="1">
                    <mxGeometry x="550" y="490" width="70" height="30" as="geometry"/>
                </mxCell>
                <mxCell id="64" value="Height" style="ellipse;whiteSpace=wrap;html=1;align=center;" vertex="1" parent="1">
                    <mxGeometry x="455" y="550" width="70" height="30" as="geometry"/>
                </mxCell>
                <mxCell id="65" value="Weight" style="ellipse;whiteSpace=wrap;html=1;align=center;" vertex="1" parent="1">
                    <mxGeometry x="540" y="550" width="70" height="30" as="geometry"/>
                </mxCell>
                <mxCell id="66" value="" style="endArrow=none;html=1;rounded=0;exitX=1;exitY=0;exitDx=0;exitDy=0;entryX=0.5;entryY=1;entryDx=0;entryDy=0;" edge="1" parent="1" source="64">
                    <mxGeometry relative="1" as="geometry">
                        <mxPoint x="510" y="530" as="sourcePoint"/>
                        <mxPoint x="530" y="460" as="targetPoint"/>
                    </mxGeometry>
                </mxCell>
                <mxCell id="67" value="" style="endArrow=none;html=1;rounded=0;exitX=0.5;exitY=1;exitDx=0;exitDy=0;entryX=0;entryY=0;entryDx=0;entryDy=0;" edge="1" parent="1" target="65">
                    <mxGeometry relative="1" as="geometry">
                        <mxPoint x="530" y="460" as="sourcePoint"/>
                        <mxPoint x="710" y="530" as="targetPoint"/>
                    </mxGeometry>
                </mxCell>
                <mxCell id="68" value="" style="endArrow=none;html=1;rounded=0;exitX=0.75;exitY=1;exitDx=0;exitDy=0;entryX=0.5;entryY=0;entryDx=0;entryDy=0;" edge="1" parent="1" target="63">
                    <mxGeometry relative="1" as="geometry">
                        <mxPoint x="555" y="460" as="sourcePoint"/>
                        <mxPoint x="730" y="470" as="targetPoint"/>
                    </mxGeometry>
                </mxCell>
                <mxCell id="69" value="PERMANENT_COLLECTION" style="rounded=1;arcSize=10;whiteSpace=wrap;html=1;align=center;" vertex="1" parent="1">
                    <mxGeometry x="550" y="50" width="170" height="40" as="geometry"/>
                </mxCell>
                <mxCell id="70" value="BORROWED" style="rounded=1;arcSize=10;whiteSpace=wrap;html=1;align=center;" vertex="1" parent="1">
                    <mxGeometry x="580" y="160" width="100" height="40" as="geometry"/>
                </mxCell>
                <mxCell id="71" value="" style="endArrow=none;html=1;rounded=0;exitX=0.5;exitY=0;exitDx=0;exitDy=0;entryX=0;entryY=0.5;entryDx=0;entryDy=0;" edge="1" parent="1" source="23" target="69">
                    <mxGeometry relative="1" as="geometry">
                        <mxPoint x="490" y="120" as="sourcePoint"/>
                        <mxPoint x="660" y="110" as="targetPoint"/>
                    </mxGeometry>
                </mxCell>
                <mxCell id="72" value="" style="endArrow=none;html=1;rounded=0;exitX=1;exitY=1;exitDx=0;exitDy=0;entryX=0;entryY=0.5;entryDx=0;entryDy=0;" edge="1" parent="1" source="23" target="70">
                    <mxGeometry relative="1" as="geometry">
                        <mxPoint x="510" y="170" as="sourcePoint"/>
                        <mxPoint x="670" y="170" as="targetPoint"/>
                    </mxGeometry>
                </mxCell>
                <mxCell id="73" value="" style="endArrow=none;html=1;" edge="1" parent="1">
                    <mxGeometry width="50" height="50" relative="1" as="geometry">
                        <mxPoint x="520" y="110" as="sourcePoint"/>
                        <mxPoint x="510" y="90" as="targetPoint"/>
                        <Array as="points">
                            <mxPoint x="530" y="80"/>
                        </Array>
                    </mxGeometry>
                </mxCell>
                <mxCell id="74" value="" style="endArrow=none;html=1;" edge="1" parent="1">
                    <mxGeometry width="50" height="50" relative="1" as="geometry">
                        <mxPoint x="520" y="170" as="sourcePoint"/>
                        <mxPoint x="530" y="150" as="targetPoint"/>
                        <Array as="points">
                            <mxPoint x="550" y="170"/>
                        </Array>
                    </mxGeometry>
                </mxCell>
                <mxCell id="75" value="Date_acquired" style="ellipse;whiteSpace=wrap;html=1;align=center;" vertex="1" parent="1">
                    <mxGeometry x="720" y="90" width="100" height="40" as="geometry"/>
                </mxCell>
                <mxCell id="76" value="" style="endArrow=none;html=1;rounded=0;exitX=1;exitY=0.5;exitDx=0;exitDy=0;entryX=0;entryY=0;entryDx=0;entryDy=0;" edge="1" parent="1" source="69" target="75">
                    <mxGeometry relative="1" as="geometry">
                        <mxPoint x="750" y="100" as="sourcePoint"/>
                        <mxPoint x="910" y="100" as="targetPoint"/>
                    </mxGeometry>
                </mxCell>
                <mxCell id="77" value="Status" style="ellipse;whiteSpace=wrap;html=1;align=center;" vertex="1" parent="1">
                    <mxGeometry x="605" y="110" width="60" height="25" as="geometry"/>
                </mxCell>
                <mxCell id="78" value="" style="endArrow=none;html=1;rounded=0;exitX=0.5;exitY=1;exitDx=0;exitDy=0;entryX=0.5;entryY=0;entryDx=0;entryDy=0;" edge="1" parent="1" source="69" target="77">
                    <mxGeometry relative="1" as="geometry">
                        <mxPoint x="730" y="90" as="sourcePoint"/>
                        <mxPoint x="890" y="90" as="targetPoint"/>
                    </mxGeometry>
                </mxCell>
                <mxCell id="79" value="Cost" style="ellipse;whiteSpace=wrap;html=1;align=center;" vertex="1" parent="1">
                    <mxGeometry x="700" y="5" width="60" height="35" as="geometry"/>
                </mxCell>
                <mxCell id="80" value="" style="endArrow=none;html=1;rounded=0;exitX=0.75;exitY=0;exitDx=0;exitDy=0;entryX=0;entryY=1;entryDx=0;entryDy=0;" edge="1" parent="1" source="69" target="79">
                    <mxGeometry relative="1" as="geometry">
                        <mxPoint x="730" y="100" as="sourcePoint"/>
                        <mxPoint x="890" y="100" as="targetPoint"/>
                    </mxGeometry>
                </mxCell>
                <mxCell id="81" value="Collection_origin" style="ellipse;whiteSpace=wrap;html=1;align=center;" vertex="1" parent="1">
                    <mxGeometry x="515" y="220" width="105" height="40" as="geometry"/>
                </mxCell>
                <mxCell id="82" value="" style="endArrow=none;html=1;rounded=0;exitX=0.5;exitY=0;exitDx=0;exitDy=0;entryX=0.25;entryY=1;entryDx=0;entryDy=0;" edge="1" parent="1" source="81" target="70">
                    <mxGeometry relative="1" as="geometry">
                        <mxPoint x="620" y="210" as="sourcePoint"/>
                        <mxPoint x="780" y="210" as="targetPoint"/>
                    </mxGeometry>
                </mxCell>
                <mxCell id="83" value="Date_borrowed" style="ellipse;whiteSpace=wrap;html=1;align=center;" vertex="1" parent="1">
                    <mxGeometry x="660" y="220" width="100" height="40" as="geometry"/>
                </mxCell>
                <mxCell id="84" value="Date_returned" style="ellipse;whiteSpace=wrap;html=1;align=center;" vertex="1" parent="1">
                    <mxGeometry x="585" y="260" width="100" height="40" as="geometry"/>
                </mxCell>
                <mxCell id="85" value="" style="endArrow=none;html=1;rounded=0;exitX=0.5;exitY=0;exitDx=0;exitDy=0;entryX=0.75;entryY=1;entryDx=0;entryDy=0;" edge="1" parent="1" source="83" target="70">
                    <mxGeometry relative="1" as="geometry">
                        <mxPoint x="740" y="190" as="sourcePoint"/>
                        <mxPoint x="900" y="190" as="targetPoint"/>
                    </mxGeometry>
                </mxCell>
                <mxCell id="86" value="" style="endArrow=none;html=1;rounded=0;exitX=0.5;exitY=0;exitDx=0;exitDy=0;entryX=0.5;entryY=1;entryDx=0;entryDy=0;" edge="1" parent="1" source="84" target="70">
                    <mxGeometry relative="1" as="geometry">
                        <mxPoint x="640" y="230" as="sourcePoint"/>
                        <mxPoint x="800" y="230" as="targetPoint"/>
                    </mxGeometry>
                </mxCell>
                <mxCell id="87" value="Origin" style="ellipse;whiteSpace=wrap;html=1;align=center;" vertex="1" parent="1">
                    <mxGeometry x="125" y="30" width="100" height="40" as="geometry"/>
                </mxCell>
            </root>
        </mxGraphModel>
    </diagram>
</mxfile>